<svg width="417" height="191" viewBox="0 0 417 191" fill="none" xmlns="http://www.w3.org/2000/svg">
<rect width="417" height="191" rx="16" fill="#330099"/>
<rect x="5" y="5" width="407" height="181" rx="15" fill="white"/>
<path d="M63.84 91.94L89.76 101.84V109.16L63.84 98.72V91.94ZM63.84 90.2L89.76 79.76V86.9L63.84 96.8V90.2ZM98.4694 108.98L103.929 103.52C104.969 104.84 106.229 105.98 107.709 106.94C109.189 107.9 110.789 108.64 112.509 109.16C114.229 109.68 115.989 109.94 117.789 109.94C119.749 109.94 121.429 109.7 122.829 109.22C124.269 108.74 125.369 108.06 126.129 107.18C126.929 106.26 127.329 105.2 127.329 104C127.329 102.4 126.549 101.12 124.989 100.16C123.469 99.16 120.729 98.36 116.769 97.76C112.889 97.2 109.729 96.38 107.289 95.3C104.889 94.22 103.109 92.86 101.949 91.22C100.829 89.58 100.269 87.64 100.269 85.4C100.269 82.8 100.989 80.5 102.429 78.5C103.909 76.5 105.929 74.94 108.489 73.82C111.049 72.7 113.969 72.14 117.249 72.14C121.089 72.14 124.509 72.86 127.509 74.3C130.509 75.74 133.049 77.68 135.129 80.12L129.729 85.52C128.209 83.56 126.389 82 124.269 80.84C122.189 79.68 119.869 79.1 117.309 79.1C114.709 79.1 112.589 79.64 110.949 80.72C109.309 81.76 108.489 83.16 108.489 84.92C108.489 85.84 108.809 86.64 109.449 87.32C110.089 88 111.149 88.58 112.629 89.06C114.149 89.5 116.189 89.92 118.749 90.32C122.629 90.92 125.789 91.8 128.229 92.96C130.709 94.08 132.549 95.52 133.749 97.28C134.949 99.04 135.549 101.14 135.549 103.58C135.549 106.3 134.789 108.66 133.269 110.66C131.749 112.66 129.649 114.22 126.969 115.34C124.289 116.42 121.189 116.96 117.669 116.96C113.549 116.96 109.869 116.24 106.629 114.8C103.389 113.32 100.669 111.38 98.4694 108.98ZM150.923 116H142.823V73.1H150.923V116ZM178.663 116H170.563V79.4H178.663V116ZM192.103 80H157.123V73.1H192.103V80ZM228.549 116H198.369V73.1H228.549V79.94H206.469V109.16H228.549V116ZM227.409 97.7H205.869V90.86H227.409V97.7ZM254.718 116H246.618V79.4H254.718V116ZM268.158 80H233.178V73.1H268.158V80ZM293.682 116.96C290.362 116.96 287.302 116.4 284.502 115.28C281.742 114.16 279.322 112.6 277.242 110.6C275.162 108.6 273.562 106.24 272.442 103.52C271.322 100.76 270.762 97.76 270.762 94.52C270.762 91.28 271.322 88.3 272.442 85.58C273.562 82.86 275.162 80.5 277.242 78.5C279.322 76.5 281.742 74.94 284.502 73.82C287.302 72.7 290.362 72.14 293.682 72.14C297.002 72.14 300.042 72.7 302.802 73.82C305.602 74.94 308.042 76.5 310.122 78.5C312.202 80.5 313.802 82.86 314.922 85.58C316.042 88.3 316.602 91.28 316.602 94.52C316.602 97.76 316.042 100.76 314.922 103.52C313.802 106.24 312.202 108.6 310.122 110.6C308.042 112.6 305.602 114.16 302.802 115.28C300.042 116.4 297.002 116.96 293.682 116.96ZM293.682 109.82C296.522 109.82 299.022 109.16 301.182 107.84C303.342 106.52 305.022 104.72 306.222 102.44C307.462 100.12 308.082 97.48 308.082 94.52C308.082 91.56 307.462 88.94 306.222 86.66C305.022 84.38 303.342 82.58 301.182 81.26C299.022 79.94 296.522 79.28 293.682 79.28C290.882 79.28 288.382 79.94 286.182 81.26C284.022 82.58 282.322 84.38 281.082 86.66C279.882 88.94 279.282 91.56 279.282 94.52C279.282 97.48 279.882 100.12 281.082 102.44C282.322 104.72 284.022 106.52 286.182 107.84C288.382 109.16 290.882 109.82 293.682 109.82ZM326.457 87.08V79.76L352.377 90.26V96.98L326.457 87.08ZM326.457 109.16V102.02L352.377 92.12V98.72L326.457 109.16Z" fill="black"/>
</svg>
